%TF.GenerationSoftware,KiCad,Pcbnew,5.1.10-1.fc34*%
%TF.CreationDate,2021-07-16T04:01:23+02:00*%
%TF.ProjectId,sequencer8,73657175-656e-4636-9572-382e6b696361,rev?*%
%TF.SameCoordinates,Original*%
%TF.FileFunction,Soldermask,Top*%
%TF.FilePolarity,Negative*%
%FSLAX46Y46*%
G04 Gerber Fmt 4.6, Leading zero omitted, Abs format (unit mm)*
G04 Created by KiCad (PCBNEW 5.1.10-1.fc34) date 2021-07-16 04:01:23*
%MOMM*%
%LPD*%
G01*
G04 APERTURE LIST*
%ADD10C,1.600000*%
%ADD11O,4.000000X5.000000*%
%ADD12C,1.800000*%
%ADD13R,1.600000X1.600000*%
%ADD14O,1.600000X1.600000*%
%ADD15R,1.050000X1.500000*%
%ADD16O,1.050000X1.500000*%
%ADD17R,1.800000X1.800000*%
%ADD18O,1.800000X1.800000*%
%ADD19C,1.500000*%
%ADD20R,3.500000X3.500000*%
%ADD21C,2.997200*%
%ADD22C,2.130000*%
%ADD23R,1.930000X1.830000*%
%ADD24O,3.000000X2.500000*%
G04 APERTURE END LIST*
D10*
%TO.C,C2*%
X247650000Y-46990000D03*
X252650000Y-46990000D03*
%TD*%
D11*
%TO.C,RV1*%
X217983000Y-62738000D03*
D12*
X215697000Y-69850000D03*
X213197000Y-69850000D03*
X210697000Y-69850000D03*
D11*
X208331000Y-62738000D03*
%TD*%
D10*
%TO.C,C3*%
X250150000Y-64770000D03*
D13*
X247650000Y-64770000D03*
%TD*%
%TO.C,C4*%
X247650000Y-57150000D03*
D10*
X250150000Y-57150000D03*
%TD*%
%TO.C,R60*%
X213868000Y-37592000D03*
D14*
X213868000Y-45212000D03*
%TD*%
D10*
%TO.C,R43*%
X231648000Y-30988000D03*
D14*
X239268000Y-30988000D03*
%TD*%
%TO.C,R41*%
X231775000Y-44831000D03*
D10*
X224155000Y-44831000D03*
%TD*%
D15*
%TO.C,Q9*%
X230505000Y-39370000D03*
D16*
X233045000Y-39370000D03*
X231775000Y-39370000D03*
%TD*%
D10*
%TO.C,R1*%
X245110000Y-52070000D03*
D14*
X252730000Y-52070000D03*
%TD*%
%TO.C,R38*%
X239268000Y-34544000D03*
D10*
X231648000Y-34544000D03*
%TD*%
D14*
%TO.C,R64*%
X206248000Y-51308000D03*
D10*
X206248000Y-43688000D03*
%TD*%
D13*
%TO.C,C1*%
X247015000Y-38735000D03*
D10*
X249515000Y-38735000D03*
%TD*%
D16*
%TO.C,U1*%
X245110000Y-31115000D03*
X246380000Y-31115000D03*
D15*
X243840000Y-31115000D03*
%TD*%
D16*
%TO.C,Q11*%
X218440000Y-39370000D03*
X219710000Y-39370000D03*
D15*
X217170000Y-39370000D03*
%TD*%
D14*
%TO.C,R40*%
X226695000Y-34290000D03*
D10*
X226695000Y-41910000D03*
%TD*%
D14*
%TO.C,R62*%
X220726000Y-34544000D03*
D10*
X213106000Y-34544000D03*
%TD*%
D17*
%TO.C,D1*%
X235585000Y-44450000D03*
D18*
X243205000Y-44450000D03*
%TD*%
D14*
%TO.C,R63*%
X214376000Y-30988000D03*
D10*
X206756000Y-30988000D03*
%TD*%
D15*
%TO.C,U2*%
X254000000Y-33655000D03*
D16*
X256540000Y-33655000D03*
X255270000Y-33655000D03*
%TD*%
D10*
%TO.C,R65*%
X216916000Y-30988000D03*
D14*
X224536000Y-30988000D03*
%TD*%
%TO.C,R61*%
X203200000Y-34544000D03*
D10*
X210820000Y-34544000D03*
%TD*%
%TO.C,R42*%
X223520000Y-34290000D03*
D14*
X223520000Y-41910000D03*
%TD*%
D18*
%TO.C,D2*%
X236220000Y-55245000D03*
D17*
X236220000Y-47625000D03*
%TD*%
%TO.C,D4*%
X97790000Y-74930000D03*
D12*
X100330000Y-74930000D03*
%TD*%
%TO.C,D6*%
X114300000Y-74930000D03*
D17*
X111760000Y-74930000D03*
%TD*%
%TO.C,D8*%
X125730000Y-74930000D03*
D12*
X128270000Y-74930000D03*
%TD*%
%TO.C,D10*%
X142240000Y-74930000D03*
D17*
X139700000Y-74930000D03*
%TD*%
D12*
%TO.C,D12*%
X156210000Y-74930000D03*
D17*
X153670000Y-74930000D03*
%TD*%
%TO.C,D14*%
X167640000Y-74930000D03*
D12*
X170180000Y-74930000D03*
%TD*%
D17*
%TO.C,D16*%
X181610000Y-74930000D03*
D12*
X184150000Y-74930000D03*
%TD*%
%TO.C,D18*%
X198120000Y-74930000D03*
D17*
X195580000Y-74930000D03*
%TD*%
D16*
%TO.C,Q1*%
X106045000Y-74295000D03*
X107315000Y-74295000D03*
D15*
X104775000Y-74295000D03*
%TD*%
D16*
%TO.C,Q2*%
X120015000Y-74295000D03*
X121285000Y-74295000D03*
D15*
X118745000Y-74295000D03*
%TD*%
D16*
%TO.C,Q3*%
X133985000Y-74295000D03*
X135255000Y-74295000D03*
D15*
X132715000Y-74295000D03*
%TD*%
%TO.C,Q4*%
X146685000Y-74295000D03*
D16*
X149225000Y-74295000D03*
X147955000Y-74295000D03*
%TD*%
D15*
%TO.C,Q5*%
X160655000Y-74295000D03*
D16*
X163195000Y-74295000D03*
X161925000Y-74295000D03*
%TD*%
%TO.C,Q6*%
X175895000Y-74295000D03*
X177165000Y-74295000D03*
D15*
X174625000Y-74295000D03*
%TD*%
%TO.C,Q7*%
X188595000Y-74295000D03*
D16*
X191135000Y-74295000D03*
X189865000Y-74295000D03*
%TD*%
%TO.C,Q8*%
X203835000Y-74295000D03*
X205105000Y-74295000D03*
D15*
X202565000Y-74295000D03*
%TD*%
%TO.C,Q10*%
X205105000Y-39370000D03*
D16*
X207645000Y-39370000D03*
X206375000Y-39370000D03*
%TD*%
D14*
%TO.C,R2*%
X133985000Y-19050000D03*
D10*
X126365000Y-19050000D03*
%TD*%
%TO.C,R3*%
X182880000Y-25400000D03*
D14*
X182880000Y-17780000D03*
%TD*%
%TO.C,R4*%
X173990000Y-29845000D03*
D10*
X166370000Y-29845000D03*
%TD*%
%TO.C,R5*%
X106045000Y-77470000D03*
D14*
X106045000Y-85090000D03*
%TD*%
D10*
%TO.C,R6*%
X95250000Y-80010000D03*
D14*
X102870000Y-80010000D03*
%TD*%
D10*
%TO.C,R7*%
X95250000Y-34290000D03*
D14*
X95250000Y-41910000D03*
%TD*%
%TO.C,R8*%
X120015000Y-85090000D03*
D10*
X120015000Y-77470000D03*
%TD*%
%TO.C,R9*%
X102870000Y-34290000D03*
D14*
X102870000Y-41910000D03*
%TD*%
D10*
%TO.C,R10*%
X109220000Y-80010000D03*
D14*
X116840000Y-80010000D03*
%TD*%
D10*
%TO.C,R11*%
X186690000Y-25400000D03*
D14*
X186690000Y-17780000D03*
%TD*%
D10*
%TO.C,R12*%
X109220000Y-34290000D03*
D14*
X109220000Y-41910000D03*
%TD*%
%TO.C,R13*%
X133985000Y-85090000D03*
D10*
X133985000Y-77470000D03*
%TD*%
D14*
%TO.C,R14*%
X116840000Y-41910000D03*
D10*
X116840000Y-34290000D03*
%TD*%
D14*
%TO.C,R15*%
X130810000Y-80010000D03*
D10*
X123190000Y-80010000D03*
%TD*%
D14*
%TO.C,R16*%
X142240000Y-29845000D03*
D10*
X149860000Y-29845000D03*
%TD*%
D14*
%TO.C,R17*%
X123190000Y-41910000D03*
D10*
X123190000Y-34290000D03*
%TD*%
D14*
%TO.C,R18*%
X147955000Y-85090000D03*
D10*
X147955000Y-77470000D03*
%TD*%
%TO.C,R19*%
X130555000Y-34290000D03*
D14*
X130555000Y-41910000D03*
%TD*%
%TO.C,R20*%
X144780000Y-80010000D03*
D10*
X137160000Y-80010000D03*
%TD*%
%TO.C,R21*%
X137160000Y-34290000D03*
D14*
X137160000Y-41910000D03*
%TD*%
%TO.C,R22*%
X161925000Y-85090000D03*
D10*
X161925000Y-77470000D03*
%TD*%
%TO.C,R23*%
X144780000Y-34290000D03*
D14*
X144780000Y-41910000D03*
%TD*%
D10*
%TO.C,R24*%
X151130000Y-80010000D03*
D14*
X158750000Y-80010000D03*
%TD*%
D10*
%TO.C,R25*%
X151130000Y-34290000D03*
D14*
X151130000Y-41910000D03*
%TD*%
D10*
%TO.C,R26*%
X175895000Y-77470000D03*
D14*
X175895000Y-85090000D03*
%TD*%
%TO.C,R27*%
X158750000Y-41910000D03*
D10*
X158750000Y-34290000D03*
%TD*%
D14*
%TO.C,R28*%
X172720000Y-80010000D03*
D10*
X165100000Y-80010000D03*
%TD*%
%TO.C,R29*%
X165100000Y-34290000D03*
D14*
X165100000Y-41910000D03*
%TD*%
%TO.C,R30*%
X189865000Y-85090000D03*
D10*
X189865000Y-77470000D03*
%TD*%
%TO.C,R31*%
X172720000Y-34290000D03*
D14*
X172720000Y-41910000D03*
%TD*%
D10*
%TO.C,R32*%
X179070000Y-80010000D03*
D14*
X186690000Y-80010000D03*
%TD*%
D10*
%TO.C,R33*%
X179070000Y-34290000D03*
D14*
X179070000Y-41910000D03*
%TD*%
D10*
%TO.C,R34*%
X203835000Y-77470000D03*
D14*
X203835000Y-85090000D03*
%TD*%
%TO.C,R35*%
X186690000Y-41910000D03*
D10*
X186690000Y-34290000D03*
%TD*%
D14*
%TO.C,R36*%
X200660000Y-80010000D03*
D10*
X193040000Y-80010000D03*
%TD*%
D14*
%TO.C,R37*%
X193040000Y-41910000D03*
D10*
X193040000Y-34290000D03*
%TD*%
%TO.C,R39*%
X200152000Y-34290000D03*
D14*
X200152000Y-41910000D03*
%TD*%
D10*
%TO.C,R44*%
X104775000Y-95250000D03*
D14*
X104775000Y-87630000D03*
%TD*%
%TO.C,R45*%
X107950000Y-87630000D03*
D10*
X107950000Y-95250000D03*
%TD*%
D14*
%TO.C,R46*%
X118745000Y-87630000D03*
D10*
X118745000Y-95250000D03*
%TD*%
%TO.C,R47*%
X121920000Y-95250000D03*
D14*
X121920000Y-87630000D03*
%TD*%
D10*
%TO.C,R48*%
X132715000Y-95250000D03*
D14*
X132715000Y-87630000D03*
%TD*%
D10*
%TO.C,R49*%
X135890000Y-95250000D03*
D14*
X135890000Y-87630000D03*
%TD*%
%TO.C,R50*%
X146685000Y-87630000D03*
D10*
X146685000Y-95250000D03*
%TD*%
%TO.C,R51*%
X149860000Y-95250000D03*
D14*
X149860000Y-87630000D03*
%TD*%
D10*
%TO.C,R52*%
X160655000Y-95250000D03*
D14*
X160655000Y-87630000D03*
%TD*%
%TO.C,R53*%
X163830000Y-87630000D03*
D10*
X163830000Y-95250000D03*
%TD*%
%TO.C,R54*%
X174625000Y-95250000D03*
D14*
X174625000Y-87630000D03*
%TD*%
%TO.C,R55*%
X177800000Y-87630000D03*
D10*
X177800000Y-95250000D03*
%TD*%
D14*
%TO.C,R56*%
X188595000Y-87630000D03*
D10*
X188595000Y-95250000D03*
%TD*%
%TO.C,R57*%
X191770000Y-95250000D03*
D14*
X191770000Y-87630000D03*
%TD*%
%TO.C,R58*%
X202565000Y-87630000D03*
D10*
X202565000Y-95250000D03*
%TD*%
D14*
%TO.C,R59*%
X205740000Y-87630000D03*
D10*
X205740000Y-95250000D03*
%TD*%
D13*
%TO.C,U3*%
X128270000Y-22225000D03*
D14*
X95250000Y-29845000D03*
X125730000Y-22225000D03*
X97790000Y-29845000D03*
X123190000Y-22225000D03*
X100330000Y-29845000D03*
X120650000Y-22225000D03*
X102870000Y-29845000D03*
X118110000Y-22225000D03*
X105410000Y-29845000D03*
X115570000Y-22225000D03*
X107950000Y-29845000D03*
X113030000Y-22225000D03*
X110490000Y-29845000D03*
X110490000Y-22225000D03*
X113030000Y-29845000D03*
X107950000Y-22225000D03*
X115570000Y-29845000D03*
X105410000Y-22225000D03*
X118110000Y-29845000D03*
X102870000Y-22225000D03*
X120650000Y-29845000D03*
X100330000Y-22225000D03*
X123190000Y-29845000D03*
X97790000Y-22225000D03*
X125730000Y-29845000D03*
X95250000Y-22225000D03*
X128270000Y-29845000D03*
%TD*%
D19*
%TO.C,Y1*%
X107315000Y-17145000D03*
X102435000Y-17145000D03*
%TD*%
D18*
%TO.C,D3*%
X184150000Y-29845000D03*
D17*
X176530000Y-29845000D03*
%TD*%
%TO.C,D5*%
X99060000Y-41910000D03*
D18*
X99060000Y-34290000D03*
%TD*%
D17*
%TO.C,D7*%
X113030000Y-41910000D03*
D18*
X113030000Y-34290000D03*
%TD*%
%TO.C,D9*%
X127000000Y-34290000D03*
D17*
X127000000Y-41910000D03*
%TD*%
%TO.C,D11*%
X140970000Y-41910000D03*
D18*
X140970000Y-34290000D03*
%TD*%
%TO.C,D13*%
X154940000Y-34290000D03*
D17*
X154940000Y-41910000D03*
%TD*%
%TO.C,D15*%
X168910000Y-41910000D03*
D18*
X168910000Y-34290000D03*
%TD*%
%TO.C,D17*%
X182880000Y-34290000D03*
D17*
X182880000Y-41910000D03*
%TD*%
%TO.C,D19*%
X196850000Y-41910000D03*
D18*
X196850000Y-34290000D03*
%TD*%
D10*
%TO.C,C5*%
X112395000Y-15240000D03*
X114895000Y-15240000D03*
%TD*%
%TO.C,C6*%
X114895000Y-18415000D03*
X112395000Y-18415000D03*
%TD*%
D13*
%TO.C,U4*%
X161290000Y-26670000D03*
D14*
X179070000Y-19050000D03*
X163830000Y-26670000D03*
X176530000Y-19050000D03*
X166370000Y-26670000D03*
X173990000Y-19050000D03*
X168910000Y-26670000D03*
X171450000Y-19050000D03*
X171450000Y-26670000D03*
X168910000Y-19050000D03*
X173990000Y-26670000D03*
X166370000Y-19050000D03*
X176530000Y-26670000D03*
X163830000Y-19050000D03*
X179070000Y-26670000D03*
X161290000Y-19050000D03*
%TD*%
%TO.C,U5*%
X137160000Y-19050000D03*
X154940000Y-26670000D03*
X139700000Y-19050000D03*
X152400000Y-26670000D03*
X142240000Y-19050000D03*
X149860000Y-26670000D03*
X144780000Y-19050000D03*
X147320000Y-26670000D03*
X147320000Y-19050000D03*
X144780000Y-26670000D03*
X149860000Y-19050000D03*
X142240000Y-26670000D03*
X152400000Y-19050000D03*
X139700000Y-26670000D03*
X154940000Y-19050000D03*
D13*
X137160000Y-26670000D03*
%TD*%
D11*
%TO.C,RV2*%
X94234000Y-62738000D03*
D12*
X96600000Y-69850000D03*
X99100000Y-69850000D03*
X101600000Y-69850000D03*
D11*
X103886000Y-62738000D03*
%TD*%
%TO.C,RV3*%
X103886000Y-48768000D03*
D12*
X101600000Y-55880000D03*
X99100000Y-55880000D03*
X96600000Y-55880000D03*
D11*
X94234000Y-48768000D03*
%TD*%
%TO.C,RV4*%
X117856000Y-62738000D03*
D12*
X115570000Y-69850000D03*
X113070000Y-69850000D03*
X110570000Y-69850000D03*
D11*
X108204000Y-62738000D03*
%TD*%
%TO.C,RV5*%
X108204000Y-48768000D03*
D12*
X110570000Y-55880000D03*
X113070000Y-55880000D03*
X115570000Y-55880000D03*
D11*
X117856000Y-48768000D03*
%TD*%
%TO.C,RV6*%
X131826000Y-62738000D03*
D12*
X129540000Y-69850000D03*
X127040000Y-69850000D03*
X124540000Y-69850000D03*
D11*
X122174000Y-62738000D03*
%TD*%
%TO.C,RV7*%
X122174000Y-48768000D03*
D12*
X124540000Y-55880000D03*
X127040000Y-55880000D03*
X129540000Y-55880000D03*
D11*
X131826000Y-48768000D03*
%TD*%
%TO.C,RV8*%
X145796000Y-62738000D03*
D12*
X143510000Y-69850000D03*
X141010000Y-69850000D03*
X138510000Y-69850000D03*
D11*
X136144000Y-62738000D03*
%TD*%
%TO.C,RV9*%
X136144000Y-48768000D03*
D12*
X138510000Y-55880000D03*
X141010000Y-55880000D03*
X143510000Y-55880000D03*
D11*
X145796000Y-48768000D03*
%TD*%
%TO.C,RV10*%
X159766000Y-62738000D03*
D12*
X157480000Y-69850000D03*
X154980000Y-69850000D03*
X152480000Y-69850000D03*
D11*
X150114000Y-62738000D03*
%TD*%
%TO.C,RV11*%
X150114000Y-48768000D03*
D12*
X152480000Y-55880000D03*
X154980000Y-55880000D03*
X157480000Y-55880000D03*
D11*
X159766000Y-48768000D03*
%TD*%
%TO.C,RV12*%
X164084000Y-62738000D03*
D12*
X166450000Y-69850000D03*
X168950000Y-69850000D03*
X171450000Y-69850000D03*
D11*
X173736000Y-62738000D03*
%TD*%
%TO.C,RV13*%
X164084000Y-48768000D03*
D12*
X166450000Y-55880000D03*
X168950000Y-55880000D03*
X171450000Y-55880000D03*
D11*
X173736000Y-48768000D03*
%TD*%
%TO.C,RV14*%
X178054000Y-62738000D03*
D12*
X180420000Y-69850000D03*
X182920000Y-69850000D03*
X185420000Y-69850000D03*
D11*
X187706000Y-62738000D03*
%TD*%
%TO.C,RV15*%
X187706000Y-48768000D03*
D12*
X185420000Y-55880000D03*
X182920000Y-55880000D03*
X180420000Y-55880000D03*
D11*
X178054000Y-48768000D03*
%TD*%
%TO.C,RV16*%
X192024000Y-62738000D03*
D12*
X194390000Y-69850000D03*
X196890000Y-69850000D03*
X199390000Y-69850000D03*
D11*
X201676000Y-62738000D03*
%TD*%
%TO.C,RV17*%
X201676000Y-48768000D03*
D12*
X199390000Y-55880000D03*
X196890000Y-55880000D03*
X194390000Y-55880000D03*
D11*
X192024000Y-48768000D03*
%TD*%
%TO.C,J1*%
G36*
G01*
X247917000Y-23190000D02*
X249667000Y-23190000D01*
G75*
G02*
X250542000Y-24065000I0J-875000D01*
G01*
X250542000Y-25815000D01*
G75*
G02*
X249667000Y-26690000I-875000J0D01*
G01*
X247917000Y-26690000D01*
G75*
G02*
X247042000Y-25815000I0J875000D01*
G01*
X247042000Y-24065000D01*
G75*
G02*
X247917000Y-23190000I875000J0D01*
G01*
G37*
G36*
G01*
X252492000Y-20440000D02*
X254492000Y-20440000D01*
G75*
G02*
X255242000Y-21190000I0J-750000D01*
G01*
X255242000Y-22690000D01*
G75*
G02*
X254492000Y-23440000I-750000J0D01*
G01*
X252492000Y-23440000D01*
G75*
G02*
X251742000Y-22690000I0J750000D01*
G01*
X251742000Y-21190000D01*
G75*
G02*
X252492000Y-20440000I750000J0D01*
G01*
G37*
D20*
X253492000Y-27940000D03*
%TD*%
D21*
%TO.C,SW8*%
X99187000Y-93599000D03*
X99187000Y-88900000D03*
X99187000Y-84201000D03*
%TD*%
%TO.C,SW9*%
X113157000Y-84241000D03*
X113157000Y-88940000D03*
X113157000Y-93639000D03*
%TD*%
%TO.C,SW10*%
X127127000Y-93599000D03*
X127127000Y-88900000D03*
X127127000Y-84201000D03*
%TD*%
%TO.C,SW11*%
X141097000Y-84201000D03*
X141097000Y-88900000D03*
X141097000Y-93599000D03*
%TD*%
%TO.C,SW12*%
X155067000Y-84201000D03*
X155067000Y-88900000D03*
X155067000Y-93599000D03*
%TD*%
%TO.C,SW13*%
X169037000Y-93599000D03*
X169037000Y-88900000D03*
X169037000Y-84201000D03*
%TD*%
%TO.C,SW14*%
X183007000Y-84201000D03*
X183007000Y-88900000D03*
X183007000Y-93599000D03*
%TD*%
%TO.C,SW15*%
X196977000Y-93599000D03*
X196977000Y-88900000D03*
X196977000Y-84201000D03*
%TD*%
D22*
%TO.C,J2*%
X238252000Y-15092200D03*
D23*
X238252000Y-26492200D03*
D22*
X238252000Y-23392200D03*
%TD*%
%TO.C,J3*%
X227406000Y-15092200D03*
D23*
X227406000Y-26492200D03*
D22*
X227406000Y-23392200D03*
%TD*%
%TO.C,J4*%
X205740000Y-23316000D03*
D23*
X205740000Y-26416000D03*
D22*
X205740000Y-15016000D03*
%TD*%
%TO.C,J5*%
X216611000Y-23392200D03*
D23*
X216611000Y-26492200D03*
D22*
X216611000Y-15092200D03*
%TD*%
D10*
%TO.C,R66*%
X196596000Y-30988000D03*
D14*
X204216000Y-30988000D03*
%TD*%
D24*
%TO.C,SW1*%
X96803000Y-98425000D03*
X101803000Y-98425000D03*
X96803000Y-110925000D03*
X101803000Y-110925000D03*
%TD*%
%TO.C,SW2*%
X115773000Y-110925000D03*
X110773000Y-110925000D03*
X115773000Y-98425000D03*
X110773000Y-98425000D03*
%TD*%
%TO.C,SW3*%
X124743000Y-98425000D03*
X129743000Y-98425000D03*
X124743000Y-110925000D03*
X129743000Y-110925000D03*
%TD*%
%TO.C,SW4*%
X143713000Y-110925000D03*
X138713000Y-110925000D03*
X143713000Y-98425000D03*
X138713000Y-98425000D03*
%TD*%
%TO.C,SW5*%
X152683000Y-98425000D03*
X157683000Y-98425000D03*
X152683000Y-110925000D03*
X157683000Y-110925000D03*
%TD*%
%TO.C,SW6*%
X171653000Y-110925000D03*
X166653000Y-110925000D03*
X171653000Y-98425000D03*
X166653000Y-98425000D03*
%TD*%
%TO.C,SW7*%
X180623000Y-98425000D03*
X185623000Y-98425000D03*
X180623000Y-110925000D03*
X185623000Y-110925000D03*
%TD*%
%TO.C,SW16*%
X199593000Y-110925000D03*
X194593000Y-110925000D03*
X199593000Y-98425000D03*
X194593000Y-98425000D03*
%TD*%
M02*
